<mxfile host="app.diagrams.net" modified="2023-04-17T11:13:22.346Z" agent="Mozilla/5.0 (Windows NT 10.0; Win64; x64) AppleWebKit/537.36 (KHTML, like Gecko) Chrome/112.0.0.0 Safari/537.36" etag="jcdMXeHrA28jPLeWDUoS" version="21.1.8" type="device">
  <diagram name="StrÃ¡nka-1" id="fFfkUv7oYCjl7vd51YV5">
    <mxGraphModel dx="1195" dy="663" grid="1" gridSize="10" guides="1" tooltips="1" connect="1" arrows="1" fold="1" page="1" pageScale="1" pageWidth="827" pageHeight="1169" math="0" shadow="0">
      <root>
        <mxCell id="0" />
        <mxCell id="1" parent="0" />
        <mxCell id="cll1MJhss36fi2fnzOmH-20" value="&lt;div style=&quot;&quot;&gt;&lt;span style=&quot;background-color: initial;&quot;&gt;Loop O(n)&lt;/span&gt;&lt;br&gt;&lt;/div&gt;" style="html=1;whiteSpace=wrap;align=left;verticalAlign=top;strokeColor=#000000;" vertex="1" parent="1">
          <mxGeometry x="19" y="220" width="790" height="510" as="geometry" />
        </mxCell>
        <mxCell id="cll1MJhss36fi2fnzOmH-142" value="MPI_Bcast" style="html=1;whiteSpace=wrap;align=left;verticalAlign=top;" vertex="1" parent="1">
          <mxGeometry x="40" y="250" width="750" height="110" as="geometry" />
        </mxCell>
        <mxCell id="cll1MJhss36fi2fnzOmH-123" value="MPI_Reduce" style="html=1;whiteSpace=wrap;align=left;verticalAlign=top;" vertex="1" parent="1">
          <mxGeometry x="40" y="370" width="750" height="110" as="geometry" />
        </mxCell>
        <mxCell id="cll1MJhss36fi2fnzOmH-96" value="MPI_Reduce" style="html=1;whiteSpace=wrap;align=left;verticalAlign=top;" vertex="1" parent="1">
          <mxGeometry x="40" y="490" width="750" height="110" as="geometry" />
        </mxCell>
        <mxCell id="cll1MJhss36fi2fnzOmH-55" value="MPI_Bcast" style="html=1;whiteSpace=wrap;align=left;verticalAlign=top;" vertex="1" parent="1">
          <mxGeometry x="40" y="610" width="750" height="110" as="geometry" />
        </mxCell>
        <mxCell id="cll1MJhss36fi2fnzOmH-69" value="MPI_Gather" style="html=1;whiteSpace=wrap;align=left;verticalAlign=top;" vertex="1" parent="1">
          <mxGeometry x="40" y="740" width="750" height="120" as="geometry" />
        </mxCell>
        <mxCell id="cll1MJhss36fi2fnzOmH-22" value="MPI_Scatter" style="html=1;whiteSpace=wrap;align=left;verticalAlign=top;" vertex="1" parent="1">
          <mxGeometry x="40" y="100" width="750" height="110" as="geometry" />
        </mxCell>
        <mxCell id="cll1MJhss36fi2fnzOmH-4" value="Proces 0" style="shape=umlLifeline;perimeter=lifelinePerimeter;whiteSpace=wrap;html=1;container=1;dropTarget=0;collapsible=0;recursiveResize=0;outlineConnect=0;portConstraint=eastwest;newEdgeStyle={&quot;edgeStyle&quot;:&quot;elbowEdgeStyle&quot;,&quot;elbow&quot;:&quot;vertical&quot;,&quot;curved&quot;:0,&quot;rounded&quot;:0};" vertex="1" parent="1">
          <mxGeometry x="70" y="50" width="100" height="820" as="geometry" />
        </mxCell>
        <mxCell id="cll1MJhss36fi2fnzOmH-23" value="" style="html=1;points=[];perimeter=orthogonalPerimeter;outlineConnect=0;targetShapes=umlLifeline;portConstraint=eastwest;newEdgeStyle={&quot;edgeStyle&quot;:&quot;elbowEdgeStyle&quot;,&quot;elbow&quot;:&quot;vertical&quot;,&quot;curved&quot;:0,&quot;rounded&quot;:0};" vertex="1" parent="cll1MJhss36fi2fnzOmH-4">
          <mxGeometry x="45" y="60" width="10" height="90" as="geometry" />
        </mxCell>
        <mxCell id="cll1MJhss36fi2fnzOmH-37" value="Send" style="html=1;align=left;spacingLeft=2;endArrow=block;rounded=0;edgeStyle=orthogonalEdgeStyle;curved=0;rounded=0;" edge="1" target="cll1MJhss36fi2fnzOmH-23" parent="cll1MJhss36fi2fnzOmH-4" source="cll1MJhss36fi2fnzOmH-23">
          <mxGeometry x="-0.625" y="10" relative="1" as="geometry">
            <mxPoint x="90" y="60" as="sourcePoint" />
            <Array as="points">
              <mxPoint x="90" y="70" />
              <mxPoint x="90" y="80" />
            </Array>
            <mxPoint x="95" y="90" as="targetPoint" />
            <mxPoint as="offset" />
          </mxGeometry>
        </mxCell>
        <mxCell id="cll1MJhss36fi2fnzOmH-121" value="" style="html=1;points=[];perimeter=orthogonalPerimeter;outlineConnect=0;targetShapes=umlLifeline;portConstraint=eastwest;newEdgeStyle={&quot;edgeStyle&quot;:&quot;elbowEdgeStyle&quot;,&quot;elbow&quot;:&quot;vertical&quot;,&quot;curved&quot;:0,&quot;rounded&quot;:0};" vertex="1" parent="cll1MJhss36fi2fnzOmH-4">
          <mxGeometry x="45" y="490" width="10" height="10" as="geometry" />
        </mxCell>
        <mxCell id="cll1MJhss36fi2fnzOmH-5" value="Proces 1" style="shape=umlLifeline;perimeter=lifelinePerimeter;whiteSpace=wrap;html=1;container=1;dropTarget=0;collapsible=0;recursiveResize=0;outlineConnect=0;portConstraint=eastwest;newEdgeStyle={&quot;edgeStyle&quot;:&quot;elbowEdgeStyle&quot;,&quot;elbow&quot;:&quot;vertical&quot;,&quot;curved&quot;:0,&quot;rounded&quot;:0};" vertex="1" parent="1">
          <mxGeometry x="250" y="50" width="110" height="820" as="geometry" />
        </mxCell>
        <mxCell id="cll1MJhss36fi2fnzOmH-27" value="" style="html=1;points=[];perimeter=orthogonalPerimeter;outlineConnect=0;targetShapes=umlLifeline;portConstraint=eastwest;newEdgeStyle={&quot;edgeStyle&quot;:&quot;elbowEdgeStyle&quot;,&quot;elbow&quot;:&quot;vertical&quot;,&quot;curved&quot;:0,&quot;rounded&quot;:0};" vertex="1" parent="cll1MJhss36fi2fnzOmH-5">
          <mxGeometry x="50" y="90" width="10" height="10" as="geometry" />
        </mxCell>
        <mxCell id="cll1MJhss36fi2fnzOmH-72" value="" style="html=1;points=[];perimeter=orthogonalPerimeter;outlineConnect=0;targetShapes=umlLifeline;portConstraint=eastwest;newEdgeStyle={&quot;edgeStyle&quot;:&quot;elbowEdgeStyle&quot;,&quot;elbow&quot;:&quot;vertical&quot;,&quot;curved&quot;:0,&quot;rounded&quot;:0};" vertex="1" parent="cll1MJhss36fi2fnzOmH-5">
          <mxGeometry x="50" y="720" width="10" height="80" as="geometry" />
        </mxCell>
        <mxCell id="cll1MJhss36fi2fnzOmH-98" value="" style="html=1;points=[];perimeter=orthogonalPerimeter;outlineConnect=0;targetShapes=umlLifeline;portConstraint=eastwest;newEdgeStyle={&quot;edgeStyle&quot;:&quot;elbowEdgeStyle&quot;,&quot;elbow&quot;:&quot;vertical&quot;,&quot;curved&quot;:0,&quot;rounded&quot;:0};" vertex="1" parent="cll1MJhss36fi2fnzOmH-5">
          <mxGeometry x="50" y="450" width="10" height="30" as="geometry" />
        </mxCell>
        <mxCell id="cll1MJhss36fi2fnzOmH-137" value="" style="html=1;points=[];perimeter=orthogonalPerimeter;outlineConnect=0;targetShapes=umlLifeline;portConstraint=eastwest;newEdgeStyle={&quot;edgeStyle&quot;:&quot;elbowEdgeStyle&quot;,&quot;elbow&quot;:&quot;vertical&quot;,&quot;curved&quot;:0,&quot;rounded&quot;:0};" vertex="1" parent="cll1MJhss36fi2fnzOmH-5">
          <mxGeometry x="50" y="600" width="10" height="40" as="geometry" />
        </mxCell>
        <mxCell id="cll1MJhss36fi2fnzOmH-6" value="Proces 2" style="shape=umlLifeline;perimeter=lifelinePerimeter;whiteSpace=wrap;html=1;container=1;dropTarget=0;collapsible=0;recursiveResize=0;outlineConnect=0;portConstraint=eastwest;newEdgeStyle={&quot;edgeStyle&quot;:&quot;elbowEdgeStyle&quot;,&quot;elbow&quot;:&quot;vertical&quot;,&quot;curved&quot;:0,&quot;rounded&quot;:0};" vertex="1" parent="1">
          <mxGeometry x="440" y="50" width="100" height="820" as="geometry" />
        </mxCell>
        <mxCell id="cll1MJhss36fi2fnzOmH-28" value="" style="html=1;points=[];perimeter=orthogonalPerimeter;outlineConnect=0;targetShapes=umlLifeline;portConstraint=eastwest;newEdgeStyle={&quot;edgeStyle&quot;:&quot;elbowEdgeStyle&quot;,&quot;elbow&quot;:&quot;vertical&quot;,&quot;curved&quot;:0,&quot;rounded&quot;:0};" vertex="1" parent="cll1MJhss36fi2fnzOmH-6">
          <mxGeometry x="45" y="100" width="10" height="10" as="geometry" />
        </mxCell>
        <mxCell id="cll1MJhss36fi2fnzOmH-73" value="" style="html=1;points=[];perimeter=orthogonalPerimeter;outlineConnect=0;targetShapes=umlLifeline;portConstraint=eastwest;newEdgeStyle={&quot;edgeStyle&quot;:&quot;elbowEdgeStyle&quot;,&quot;elbow&quot;:&quot;vertical&quot;,&quot;curved&quot;:0,&quot;rounded&quot;:0};" vertex="1" parent="cll1MJhss36fi2fnzOmH-6">
          <mxGeometry x="45" y="730" width="10" height="70" as="geometry" />
        </mxCell>
        <mxCell id="cll1MJhss36fi2fnzOmH-99" value="" style="html=1;points=[];perimeter=orthogonalPerimeter;outlineConnect=0;targetShapes=umlLifeline;portConstraint=eastwest;newEdgeStyle={&quot;edgeStyle&quot;:&quot;elbowEdgeStyle&quot;,&quot;elbow&quot;:&quot;vertical&quot;,&quot;curved&quot;:0,&quot;rounded&quot;:0};" vertex="1" parent="cll1MJhss36fi2fnzOmH-6">
          <mxGeometry x="45" y="460" width="10" height="10" as="geometry" />
        </mxCell>
        <mxCell id="cll1MJhss36fi2fnzOmH-117" value="" style="html=1;points=[];perimeter=orthogonalPerimeter;outlineConnect=0;targetShapes=umlLifeline;portConstraint=eastwest;newEdgeStyle={&quot;edgeStyle&quot;:&quot;elbowEdgeStyle&quot;,&quot;elbow&quot;:&quot;vertical&quot;,&quot;curved&quot;:0,&quot;rounded&quot;:0};" vertex="1" parent="cll1MJhss36fi2fnzOmH-6">
          <mxGeometry x="45" y="480" width="10" height="30" as="geometry" />
        </mxCell>
        <mxCell id="cll1MJhss36fi2fnzOmH-139" value="" style="html=1;points=[];perimeter=orthogonalPerimeter;outlineConnect=0;targetShapes=umlLifeline;portConstraint=eastwest;newEdgeStyle={&quot;edgeStyle&quot;:&quot;elbowEdgeStyle&quot;,&quot;elbow&quot;:&quot;vertical&quot;,&quot;curved&quot;:0,&quot;rounded&quot;:0};" vertex="1" parent="cll1MJhss36fi2fnzOmH-6">
          <mxGeometry x="45" y="610" width="10" height="40" as="geometry" />
        </mxCell>
        <mxCell id="cll1MJhss36fi2fnzOmH-7" value="Proces N (n)" style="shape=umlLifeline;perimeter=lifelinePerimeter;whiteSpace=wrap;html=1;container=1;dropTarget=0;collapsible=0;recursiveResize=0;outlineConnect=0;portConstraint=eastwest;newEdgeStyle={&quot;edgeStyle&quot;:&quot;elbowEdgeStyle&quot;,&quot;elbow&quot;:&quot;vertical&quot;,&quot;curved&quot;:0,&quot;rounded&quot;:0};" vertex="1" parent="1">
          <mxGeometry x="670" y="50" width="100" height="820" as="geometry" />
        </mxCell>
        <mxCell id="cll1MJhss36fi2fnzOmH-29" value="" style="html=1;points=[];perimeter=orthogonalPerimeter;outlineConnect=0;targetShapes=umlLifeline;portConstraint=eastwest;newEdgeStyle={&quot;edgeStyle&quot;:&quot;elbowEdgeStyle&quot;,&quot;elbow&quot;:&quot;vertical&quot;,&quot;curved&quot;:0,&quot;rounded&quot;:0};" vertex="1" parent="cll1MJhss36fi2fnzOmH-7">
          <mxGeometry x="45" y="130" width="10" height="10" as="geometry" />
        </mxCell>
        <mxCell id="cll1MJhss36fi2fnzOmH-74" value="" style="html=1;points=[];perimeter=orthogonalPerimeter;outlineConnect=0;targetShapes=umlLifeline;portConstraint=eastwest;newEdgeStyle={&quot;edgeStyle&quot;:&quot;elbowEdgeStyle&quot;,&quot;elbow&quot;:&quot;vertical&quot;,&quot;curved&quot;:0,&quot;rounded&quot;:0};" vertex="1" parent="cll1MJhss36fi2fnzOmH-7">
          <mxGeometry x="45" y="760" width="10" height="40" as="geometry" />
        </mxCell>
        <mxCell id="cll1MJhss36fi2fnzOmH-100" value="" style="html=1;points=[];perimeter=orthogonalPerimeter;outlineConnect=0;targetShapes=umlLifeline;portConstraint=eastwest;newEdgeStyle={&quot;edgeStyle&quot;:&quot;elbowEdgeStyle&quot;,&quot;elbow&quot;:&quot;vertical&quot;,&quot;curved&quot;:0,&quot;rounded&quot;:0};" vertex="1" parent="cll1MJhss36fi2fnzOmH-7">
          <mxGeometry x="45" y="450" width="10" height="30" as="geometry" />
        </mxCell>
        <mxCell id="cll1MJhss36fi2fnzOmH-59" value="" style="html=1;points=[];perimeter=orthogonalPerimeter;outlineConnect=0;targetShapes=umlLifeline;portConstraint=eastwest;newEdgeStyle={&quot;edgeStyle&quot;:&quot;elbowEdgeStyle&quot;,&quot;elbow&quot;:&quot;vertical&quot;,&quot;curved&quot;:0,&quot;rounded&quot;:0};" vertex="1" parent="cll1MJhss36fi2fnzOmH-7">
          <mxGeometry x="45" y="630" width="10" height="10" as="geometry" />
        </mxCell>
        <mxCell id="cll1MJhss36fi2fnzOmH-11" value="" style="endArrow=none;dashed=1;html=1;dashPattern=1 3;strokeWidth=2;rounded=0;" edge="1" parent="1">
          <mxGeometry width="50" height="50" relative="1" as="geometry">
            <mxPoint x="580" y="70" as="sourcePoint" />
            <mxPoint x="630" y="70" as="targetPoint" />
          </mxGeometry>
        </mxCell>
        <mxCell id="cll1MJhss36fi2fnzOmH-25" value="&lt;font style=&quot;font-size: 11px;&quot;&gt;RozdÄlenÃ­ vstupnÃ­ch hodnot procesÅ¯m&lt;/font&gt;" style="text;html=1;strokeColor=none;fillColor=none;align=center;verticalAlign=middle;whiteSpace=wrap;rounded=0;" vertex="1" parent="1">
          <mxGeometry x="50" y="130" width="60" height="60" as="geometry" />
        </mxCell>
        <mxCell id="cll1MJhss36fi2fnzOmH-26" value="Send" style="html=1;verticalAlign=bottom;endArrow=block;edgeStyle=elbowEdgeStyle;elbow=vertical;curved=0;rounded=0;" edge="1" parent="1" source="cll1MJhss36fi2fnzOmH-23" target="cll1MJhss36fi2fnzOmH-27">
          <mxGeometry x="-0.0286" width="80" relative="1" as="geometry">
            <mxPoint x="160" y="150" as="sourcePoint" />
            <mxPoint x="270" y="140" as="targetPoint" />
            <Array as="points">
              <mxPoint x="180" y="140" />
              <mxPoint x="260" y="140" />
            </Array>
            <mxPoint as="offset" />
          </mxGeometry>
        </mxCell>
        <mxCell id="cll1MJhss36fi2fnzOmH-30" value="Send" style="html=1;verticalAlign=bottom;endArrow=block;edgeStyle=elbowEdgeStyle;elbow=vertical;curved=0;rounded=0;" edge="1" parent="1" target="cll1MJhss36fi2fnzOmH-28">
          <mxGeometry x="0.5336" width="80" relative="1" as="geometry">
            <mxPoint x="125" y="164.5" as="sourcePoint" />
            <mxPoint x="300" y="164.5" as="targetPoint" />
            <Array as="points">
              <mxPoint x="290" y="150" />
              <mxPoint x="170" y="160" />
              <mxPoint x="190" y="150" />
              <mxPoint x="220" y="160" />
              <mxPoint x="170" y="164.5" />
              <mxPoint x="260" y="164.5" />
            </Array>
            <mxPoint as="offset" />
          </mxGeometry>
        </mxCell>
        <mxCell id="cll1MJhss36fi2fnzOmH-31" value="Send" style="html=1;verticalAlign=bottom;endArrow=block;edgeStyle=elbowEdgeStyle;elbow=vertical;curved=0;rounded=0;" edge="1" parent="1" target="cll1MJhss36fi2fnzOmH-29">
          <mxGeometry x="0.6105" width="80" relative="1" as="geometry">
            <mxPoint x="125" y="184.5" as="sourcePoint" />
            <mxPoint x="485" y="180" as="targetPoint" />
            <Array as="points">
              <mxPoint x="220" y="185" />
              <mxPoint x="330" y="180" />
              <mxPoint x="370" y="190" />
              <mxPoint x="220" y="180" />
              <mxPoint x="170" y="184.5" />
              <mxPoint x="260" y="184.5" />
            </Array>
            <mxPoint as="offset" />
          </mxGeometry>
        </mxCell>
        <mxCell id="cll1MJhss36fi2fnzOmH-39" value="" style="endArrow=none;dashed=1;html=1;dashPattern=1 3;strokeWidth=2;rounded=0;" edge="1" parent="1">
          <mxGeometry width="50" height="50" relative="1" as="geometry">
            <mxPoint x="210" y="180" as="sourcePoint" />
            <mxPoint x="210" y="160" as="targetPoint" />
          </mxGeometry>
        </mxCell>
        <mxCell id="cll1MJhss36fi2fnzOmH-56" value="" style="html=1;points=[];perimeter=orthogonalPerimeter;outlineConnect=0;targetShapes=umlLifeline;portConstraint=eastwest;newEdgeStyle={&quot;edgeStyle&quot;:&quot;elbowEdgeStyle&quot;,&quot;elbow&quot;:&quot;vertical&quot;,&quot;curved&quot;:0,&quot;rounded&quot;:0};" vertex="1" parent="1">
          <mxGeometry x="115" y="620" width="10" height="40" as="geometry" />
        </mxCell>
        <mxCell id="cll1MJhss36fi2fnzOmH-57" value="" style="html=1;points=[];perimeter=orthogonalPerimeter;outlineConnect=0;targetShapes=umlLifeline;portConstraint=eastwest;newEdgeStyle={&quot;edgeStyle&quot;:&quot;elbowEdgeStyle&quot;,&quot;elbow&quot;:&quot;vertical&quot;,&quot;curved&quot;:0,&quot;rounded&quot;:0};" vertex="1" parent="1">
          <mxGeometry x="300" y="630" width="10" height="10" as="geometry" />
        </mxCell>
        <mxCell id="cll1MJhss36fi2fnzOmH-58" value="" style="html=1;points=[];perimeter=orthogonalPerimeter;outlineConnect=0;targetShapes=umlLifeline;portConstraint=eastwest;newEdgeStyle={&quot;edgeStyle&quot;:&quot;elbowEdgeStyle&quot;,&quot;elbow&quot;:&quot;vertical&quot;,&quot;curved&quot;:0,&quot;rounded&quot;:0};" vertex="1" parent="1">
          <mxGeometry x="485" y="640" width="10" height="10" as="geometry" />
        </mxCell>
        <mxCell id="cll1MJhss36fi2fnzOmH-60" value="&lt;font style=&quot;font-size: 11px;&quot;&gt;Distribuce ÅÃ­dÃ­cÃ­ promÄnnÃ© cyklu&lt;/font&gt;" style="text;html=1;strokeColor=none;fillColor=none;align=center;verticalAlign=middle;whiteSpace=wrap;rounded=0;" vertex="1" parent="1">
          <mxGeometry x="50" y="635" width="60" height="60" as="geometry" />
        </mxCell>
        <mxCell id="cll1MJhss36fi2fnzOmH-61" value="Send" style="html=1;verticalAlign=bottom;endArrow=block;edgeStyle=elbowEdgeStyle;elbow=vertical;curved=0;rounded=0;" edge="1" parent="1">
          <mxGeometry x="-0.0286" width="80" relative="1" as="geometry">
            <mxPoint x="125" y="630" as="sourcePoint" />
            <mxPoint x="300" y="630" as="targetPoint" />
            <Array as="points">
              <mxPoint x="180" y="630" />
              <mxPoint x="260" y="630" />
            </Array>
            <mxPoint as="offset" />
          </mxGeometry>
        </mxCell>
        <mxCell id="cll1MJhss36fi2fnzOmH-62" value="Send" style="html=1;verticalAlign=bottom;endArrow=block;edgeStyle=elbowEdgeStyle;elbow=vertical;curved=0;rounded=0;" edge="1" parent="1" target="cll1MJhss36fi2fnzOmH-58">
          <mxGeometry x="0.5521" width="80" relative="1" as="geometry">
            <mxPoint x="125" y="659.5799999999999" as="sourcePoint" />
            <mxPoint x="300" y="659.5799999999999" as="targetPoint" />
            <Array as="points">
              <mxPoint x="160" y="640" />
              <mxPoint x="160" y="650" />
              <mxPoint x="180" y="659.5799999999999" />
              <mxPoint x="260" y="659.5799999999999" />
            </Array>
            <mxPoint as="offset" />
          </mxGeometry>
        </mxCell>
        <mxCell id="cll1MJhss36fi2fnzOmH-65" value="Send" style="html=1;verticalAlign=bottom;endArrow=block;edgeStyle=elbowEdgeStyle;elbow=vertical;curved=0;rounded=0;" edge="1" parent="1">
          <mxGeometry x="-0.2174" y="-1" width="80" relative="1" as="geometry">
            <mxPoint x="310" y="659.17" as="sourcePoint" />
            <mxPoint x="540" y="659.17" as="targetPoint" />
            <Array as="points">
              <mxPoint x="330" y="659.17" />
              <mxPoint x="330" y="669.17" />
              <mxPoint x="330" y="669.17" />
              <mxPoint x="375" y="659.17" />
              <mxPoint x="455" y="659.17" />
            </Array>
            <mxPoint as="offset" />
          </mxGeometry>
        </mxCell>
        <mxCell id="cll1MJhss36fi2fnzOmH-67" value="" style="endArrow=none;dashed=1;html=1;dashPattern=1 3;strokeWidth=2;rounded=0;" edge="1" parent="1">
          <mxGeometry width="50" height="50" relative="1" as="geometry">
            <mxPoint x="600" y="665" as="sourcePoint" />
            <mxPoint x="620" y="665" as="targetPoint" />
          </mxGeometry>
        </mxCell>
        <mxCell id="cll1MJhss36fi2fnzOmH-68" value="Send" style="html=1;verticalAlign=bottom;endArrow=block;edgeStyle=elbowEdgeStyle;elbow=vertical;curved=0;rounded=0;" edge="1" parent="1" target="cll1MJhss36fi2fnzOmH-59">
          <mxGeometry x="-0.0286" width="80" relative="1" as="geometry">
            <mxPoint x="640" y="680" as="sourcePoint" />
            <mxPoint x="705" y="665" as="targetPoint" />
            <Array as="points">
              <mxPoint x="700" y="680" />
              <mxPoint x="690" y="660" />
              <mxPoint x="660" y="660" />
              <mxPoint x="650" y="650" />
            </Array>
            <mxPoint as="offset" />
          </mxGeometry>
        </mxCell>
        <mxCell id="cll1MJhss36fi2fnzOmH-70" value="" style="html=1;points=[];perimeter=orthogonalPerimeter;outlineConnect=0;targetShapes=umlLifeline;portConstraint=eastwest;newEdgeStyle={&quot;edgeStyle&quot;:&quot;elbowEdgeStyle&quot;,&quot;elbow&quot;:&quot;vertical&quot;,&quot;curved&quot;:0,&quot;rounded&quot;:0};" vertex="1" parent="1">
          <mxGeometry x="115" y="750" width="10" height="90" as="geometry" />
        </mxCell>
        <mxCell id="cll1MJhss36fi2fnzOmH-71" value="Send" style="html=1;align=left;spacingLeft=2;endArrow=block;rounded=0;edgeStyle=orthogonalEdgeStyle;curved=0;rounded=0;" edge="1" parent="1" source="cll1MJhss36fi2fnzOmH-70" target="cll1MJhss36fi2fnzOmH-70">
          <mxGeometry x="-0.625" y="10" relative="1" as="geometry">
            <mxPoint x="160" y="750" as="sourcePoint" />
            <Array as="points">
              <mxPoint x="160" y="760" />
              <mxPoint x="160" y="770" />
            </Array>
            <mxPoint x="165" y="780" as="targetPoint" />
            <mxPoint as="offset" />
          </mxGeometry>
        </mxCell>
        <mxCell id="cll1MJhss36fi2fnzOmH-75" value="&lt;font style=&quot;font-size: 11px;&quot;&gt;ZÃ­skÃ¡nÃ­ vÃ½slednÃ½ch shlukÅ¯ pro jednotlivÃ© hodnoty&lt;/font&gt;" style="text;html=1;strokeColor=none;fillColor=none;align=center;verticalAlign=middle;whiteSpace=wrap;rounded=0;" vertex="1" parent="1">
          <mxGeometry x="50" y="770" width="60" height="70" as="geometry" />
        </mxCell>
        <mxCell id="cll1MJhss36fi2fnzOmH-79" value="" style="endArrow=none;dashed=1;html=1;dashPattern=1 3;strokeWidth=2;rounded=0;" edge="1" parent="1">
          <mxGeometry width="50" height="50" relative="1" as="geometry">
            <mxPoint x="210" y="815" as="sourcePoint" />
            <mxPoint x="210" y="795" as="targetPoint" />
            <Array as="points">
              <mxPoint x="210" y="795" />
            </Array>
          </mxGeometry>
        </mxCell>
        <mxCell id="cll1MJhss36fi2fnzOmH-76" value="Send" style="html=1;verticalAlign=bottom;endArrow=block;edgeStyle=elbowEdgeStyle;elbow=vertical;curved=0;rounded=0;" edge="1" parent="1" source="cll1MJhss36fi2fnzOmH-72" target="cll1MJhss36fi2fnzOmH-70">
          <mxGeometry x="-0.0286" width="80" relative="1" as="geometry">
            <mxPoint x="270" y="780" as="sourcePoint" />
            <mxPoint x="160" y="790" as="targetPoint" />
            <Array as="points">
              <mxPoint x="260" y="780" />
              <mxPoint x="180" y="780" />
            </Array>
            <mxPoint as="offset" />
          </mxGeometry>
        </mxCell>
        <mxCell id="cll1MJhss36fi2fnzOmH-77" value="Send" style="html=1;verticalAlign=bottom;endArrow=block;edgeStyle=elbowEdgeStyle;elbow=vertical;curved=0;rounded=0;" edge="1" parent="1" target="cll1MJhss36fi2fnzOmH-70" source="cll1MJhss36fi2fnzOmH-73">
          <mxGeometry x="-0.5089" width="80" relative="1" as="geometry">
            <mxPoint x="300" y="804.5" as="sourcePoint" />
            <mxPoint x="160" y="800" as="targetPoint" />
            <Array as="points">
              <mxPoint x="250" y="790" />
              <mxPoint x="360" y="800" />
              <mxPoint x="380" y="790" />
              <mxPoint x="260" y="804.5" />
              <mxPoint x="170" y="804.5" />
              <mxPoint x="220" y="800" />
              <mxPoint x="190" y="790" />
              <mxPoint x="170" y="800" />
            </Array>
            <mxPoint as="offset" />
          </mxGeometry>
        </mxCell>
        <mxCell id="cll1MJhss36fi2fnzOmH-78" value="Send" style="html=1;verticalAlign=bottom;endArrow=block;edgeStyle=elbowEdgeStyle;elbow=vertical;curved=0;rounded=0;" edge="1" parent="1" target="cll1MJhss36fi2fnzOmH-70" source="cll1MJhss36fi2fnzOmH-74">
          <mxGeometry x="-0.6989" width="80" relative="1" as="geometry">
            <mxPoint x="485" y="820" as="sourcePoint" />
            <mxPoint x="150" y="830" as="targetPoint" />
            <Array as="points">
              <mxPoint x="270" y="820" />
              <mxPoint x="250" y="830" />
              <mxPoint x="360" y="820" />
              <mxPoint x="260" y="824.5" />
              <mxPoint x="170" y="824.5" />
              <mxPoint x="220" y="820" />
              <mxPoint x="370" y="830" />
            </Array>
            <mxPoint as="offset" />
          </mxGeometry>
        </mxCell>
        <mxCell id="cll1MJhss36fi2fnzOmH-97" value="" style="html=1;points=[];perimeter=orthogonalPerimeter;outlineConnect=0;targetShapes=umlLifeline;portConstraint=eastwest;newEdgeStyle={&quot;edgeStyle&quot;:&quot;elbowEdgeStyle&quot;,&quot;elbow&quot;:&quot;vertical&quot;,&quot;curved&quot;:0,&quot;rounded&quot;:0};" vertex="1" parent="1">
          <mxGeometry x="115" y="510" width="10" height="10" as="geometry" />
        </mxCell>
        <mxCell id="cll1MJhss36fi2fnzOmH-101" value="&lt;font style=&quot;font-size: 11px;&quot;&gt;ZÃ­skÃ¡nÃ­ poÄtÅ¯ hodnot v jednotlivÃ½ch shlucÃ­ch&lt;/font&gt;" style="text;html=1;strokeColor=none;fillColor=none;align=center;verticalAlign=middle;whiteSpace=wrap;rounded=0;" vertex="1" parent="1">
          <mxGeometry x="50" y="515" width="60" height="70" as="geometry" />
        </mxCell>
        <mxCell id="cll1MJhss36fi2fnzOmH-108" value="" style="endArrow=none;dashed=1;html=1;dashPattern=1 3;strokeWidth=2;rounded=0;" edge="1" parent="1">
          <mxGeometry width="50" height="50" relative="1" as="geometry">
            <mxPoint x="600" y="545" as="sourcePoint" />
            <mxPoint x="620" y="545" as="targetPoint" />
          </mxGeometry>
        </mxCell>
        <mxCell id="cll1MJhss36fi2fnzOmH-111" value="Send" style="html=1;verticalAlign=bottom;endArrow=block;edgeStyle=elbowEdgeStyle;elbow=vertical;curved=0;rounded=0;" edge="1" parent="1" source="cll1MJhss36fi2fnzOmH-100">
          <mxGeometry x="-0.0286" width="80" relative="1" as="geometry">
            <mxPoint x="690" y="544.58" as="sourcePoint" />
            <mxPoint x="640" y="510" as="targetPoint" />
            <Array as="points">
              <mxPoint x="690" y="510" />
              <mxPoint x="670" y="505" />
              <mxPoint x="715" y="544.58" />
              <mxPoint x="665" y="544.58" />
            </Array>
            <mxPoint as="offset" />
          </mxGeometry>
        </mxCell>
        <mxCell id="cll1MJhss36fi2fnzOmH-114" value="Send" style="html=1;verticalAlign=bottom;endArrow=block;edgeStyle=elbowEdgeStyle;elbow=vertical;curved=0;rounded=0;" edge="1" parent="1">
          <mxGeometry x="-0.0286" width="80" relative="1" as="geometry">
            <mxPoint x="580" y="510.42" as="sourcePoint" />
            <mxPoint x="495" y="510.42" as="targetPoint" />
            <Array as="points">
              <mxPoint x="635" y="510" />
              <mxPoint x="555" y="510" />
            </Array>
            <mxPoint as="offset" />
          </mxGeometry>
        </mxCell>
        <mxCell id="cll1MJhss36fi2fnzOmH-116" value="Send" style="html=1;verticalAlign=bottom;endArrow=block;edgeStyle=elbowEdgeStyle;elbow=vertical;curved=0;rounded=0;" edge="1" parent="1">
          <mxGeometry x="-0.0286" width="80" relative="1" as="geometry">
            <mxPoint x="300" y="510" as="sourcePoint" />
            <mxPoint x="125" y="510" as="targetPoint" />
            <Array as="points">
              <mxPoint x="260" y="510" />
              <mxPoint x="180" y="510" />
            </Array>
            <mxPoint as="offset" />
          </mxGeometry>
        </mxCell>
        <mxCell id="cll1MJhss36fi2fnzOmH-120" value="Send" style="html=1;verticalAlign=bottom;endArrow=block;edgeStyle=elbowEdgeStyle;elbow=vertical;curved=0;rounded=0;" edge="1" parent="1" target="cll1MJhss36fi2fnzOmH-121">
          <mxGeometry x="-0.5278" width="80" relative="1" as="geometry">
            <mxPoint x="485" y="540" as="sourcePoint" />
            <mxPoint x="310" y="540" as="targetPoint" />
            <Array as="points">
              <mxPoint x="445" y="540" />
              <mxPoint x="365" y="540" />
            </Array>
            <mxPoint as="offset" />
          </mxGeometry>
        </mxCell>
        <mxCell id="cll1MJhss36fi2fnzOmH-122" value="" style="endArrow=none;dashed=1;html=1;dashPattern=1 3;strokeWidth=2;rounded=0;" edge="1" parent="1">
          <mxGeometry width="50" height="50" relative="1" as="geometry">
            <mxPoint x="210" y="580" as="sourcePoint" />
            <mxPoint x="210" y="560" as="targetPoint" />
            <Array as="points">
              <mxPoint x="210" y="560" />
            </Array>
          </mxGeometry>
        </mxCell>
        <mxCell id="cll1MJhss36fi2fnzOmH-124" value="" style="html=1;points=[];perimeter=orthogonalPerimeter;outlineConnect=0;targetShapes=umlLifeline;portConstraint=eastwest;newEdgeStyle={&quot;edgeStyle&quot;:&quot;elbowEdgeStyle&quot;,&quot;elbow&quot;:&quot;vertical&quot;,&quot;curved&quot;:0,&quot;rounded&quot;:0};" vertex="1" parent="1">
          <mxGeometry x="115" y="420" width="10" height="10" as="geometry" />
        </mxCell>
        <mxCell id="cll1MJhss36fi2fnzOmH-125" value="" style="html=1;points=[];perimeter=orthogonalPerimeter;outlineConnect=0;targetShapes=umlLifeline;portConstraint=eastwest;newEdgeStyle={&quot;edgeStyle&quot;:&quot;elbowEdgeStyle&quot;,&quot;elbow&quot;:&quot;vertical&quot;,&quot;curved&quot;:0,&quot;rounded&quot;:0};" vertex="1" parent="1">
          <mxGeometry x="300" y="380" width="10" height="30" as="geometry" />
        </mxCell>
        <mxCell id="cll1MJhss36fi2fnzOmH-126" value="" style="html=1;points=[];perimeter=orthogonalPerimeter;outlineConnect=0;targetShapes=umlLifeline;portConstraint=eastwest;newEdgeStyle={&quot;edgeStyle&quot;:&quot;elbowEdgeStyle&quot;,&quot;elbow&quot;:&quot;vertical&quot;,&quot;curved&quot;:0,&quot;rounded&quot;:0};" vertex="1" parent="1">
          <mxGeometry x="485" y="390" width="10" height="10" as="geometry" />
        </mxCell>
        <mxCell id="cll1MJhss36fi2fnzOmH-127" value="" style="html=1;points=[];perimeter=orthogonalPerimeter;outlineConnect=0;targetShapes=umlLifeline;portConstraint=eastwest;newEdgeStyle={&quot;edgeStyle&quot;:&quot;elbowEdgeStyle&quot;,&quot;elbow&quot;:&quot;vertical&quot;,&quot;curved&quot;:0,&quot;rounded&quot;:0};" vertex="1" parent="1">
          <mxGeometry x="485" y="410" width="10" height="30" as="geometry" />
        </mxCell>
        <mxCell id="cll1MJhss36fi2fnzOmH-128" value="" style="html=1;points=[];perimeter=orthogonalPerimeter;outlineConnect=0;targetShapes=umlLifeline;portConstraint=eastwest;newEdgeStyle={&quot;edgeStyle&quot;:&quot;elbowEdgeStyle&quot;,&quot;elbow&quot;:&quot;vertical&quot;,&quot;curved&quot;:0,&quot;rounded&quot;:0};" vertex="1" parent="1">
          <mxGeometry x="715" y="380" width="10" height="30" as="geometry" />
        </mxCell>
        <mxCell id="cll1MJhss36fi2fnzOmH-129" value="" style="html=1;points=[];perimeter=orthogonalPerimeter;outlineConnect=0;targetShapes=umlLifeline;portConstraint=eastwest;newEdgeStyle={&quot;edgeStyle&quot;:&quot;elbowEdgeStyle&quot;,&quot;elbow&quot;:&quot;vertical&quot;,&quot;curved&quot;:0,&quot;rounded&quot;:0};" vertex="1" parent="1">
          <mxGeometry x="115" y="390" width="10" height="10" as="geometry" />
        </mxCell>
        <mxCell id="cll1MJhss36fi2fnzOmH-130" value="&lt;font style=&quot;font-size: 11px;&quot;&gt;ZÃ­skÃ¡nÃ­ souÄtÅ¯ hodnot v jednotlivÃ½ch shlucÃ­ch&lt;/font&gt;" style="text;html=1;strokeColor=none;fillColor=none;align=center;verticalAlign=middle;whiteSpace=wrap;rounded=0;" vertex="1" parent="1">
          <mxGeometry x="50" y="395" width="60" height="70" as="geometry" />
        </mxCell>
        <mxCell id="cll1MJhss36fi2fnzOmH-131" value="" style="endArrow=none;dashed=1;html=1;dashPattern=1 3;strokeWidth=2;rounded=0;" edge="1" parent="1">
          <mxGeometry width="50" height="50" relative="1" as="geometry">
            <mxPoint x="600" y="425" as="sourcePoint" />
            <mxPoint x="620" y="425" as="targetPoint" />
          </mxGeometry>
        </mxCell>
        <mxCell id="cll1MJhss36fi2fnzOmH-132" value="Send" style="html=1;verticalAlign=bottom;endArrow=block;edgeStyle=elbowEdgeStyle;elbow=vertical;curved=0;rounded=0;" edge="1" parent="1" source="cll1MJhss36fi2fnzOmH-128">
          <mxGeometry x="-0.0286" width="80" relative="1" as="geometry">
            <mxPoint x="690" y="424.58000000000004" as="sourcePoint" />
            <mxPoint x="640" y="390" as="targetPoint" />
            <Array as="points">
              <mxPoint x="690" y="390" />
              <mxPoint x="670" y="385" />
              <mxPoint x="715" y="424.58000000000004" />
              <mxPoint x="665" y="424.58000000000004" />
            </Array>
            <mxPoint as="offset" />
          </mxGeometry>
        </mxCell>
        <mxCell id="cll1MJhss36fi2fnzOmH-133" value="Send" style="html=1;verticalAlign=bottom;endArrow=block;edgeStyle=elbowEdgeStyle;elbow=vertical;curved=0;rounded=0;" edge="1" parent="1">
          <mxGeometry x="-0.0286" width="80" relative="1" as="geometry">
            <mxPoint x="580" y="390.4200000000001" as="sourcePoint" />
            <mxPoint x="495" y="390.4200000000001" as="targetPoint" />
            <Array as="points">
              <mxPoint x="635" y="390" />
              <mxPoint x="555" y="390" />
            </Array>
            <mxPoint as="offset" />
          </mxGeometry>
        </mxCell>
        <mxCell id="cll1MJhss36fi2fnzOmH-134" value="Send" style="html=1;verticalAlign=bottom;endArrow=block;edgeStyle=elbowEdgeStyle;elbow=vertical;curved=0;rounded=0;" edge="1" parent="1">
          <mxGeometry x="-0.0286" width="80" relative="1" as="geometry">
            <mxPoint x="300" y="390" as="sourcePoint" />
            <mxPoint x="125" y="390" as="targetPoint" />
            <Array as="points">
              <mxPoint x="260" y="390" />
              <mxPoint x="180" y="390" />
            </Array>
            <mxPoint as="offset" />
          </mxGeometry>
        </mxCell>
        <mxCell id="cll1MJhss36fi2fnzOmH-135" value="Send" style="html=1;verticalAlign=bottom;endArrow=block;edgeStyle=elbowEdgeStyle;elbow=vertical;curved=0;rounded=0;" edge="1" parent="1" target="cll1MJhss36fi2fnzOmH-124">
          <mxGeometry x="-0.5278" width="80" relative="1" as="geometry">
            <mxPoint x="485" y="420" as="sourcePoint" />
            <mxPoint x="310" y="420" as="targetPoint" />
            <Array as="points">
              <mxPoint x="445" y="420" />
              <mxPoint x="365" y="420" />
            </Array>
            <mxPoint as="offset" />
          </mxGeometry>
        </mxCell>
        <mxCell id="cll1MJhss36fi2fnzOmH-136" value="" style="endArrow=none;dashed=1;html=1;dashPattern=1 3;strokeWidth=2;rounded=0;" edge="1" parent="1">
          <mxGeometry width="50" height="50" relative="1" as="geometry">
            <mxPoint x="210" y="460" as="sourcePoint" />
            <mxPoint x="210" y="440" as="targetPoint" />
            <Array as="points">
              <mxPoint x="210" y="440" />
            </Array>
          </mxGeometry>
        </mxCell>
        <mxCell id="cll1MJhss36fi2fnzOmH-138" value="Send" style="html=1;verticalAlign=bottom;endArrow=block;edgeStyle=elbowEdgeStyle;elbow=vertical;curved=0;rounded=0;" edge="1" parent="1">
          <mxGeometry x="-0.2174" y="-20" width="80" relative="1" as="geometry">
            <mxPoint x="310" y="670" as="sourcePoint" />
            <mxPoint x="540" y="670" as="targetPoint" />
            <Array as="points">
              <mxPoint x="330" y="670" />
              <mxPoint x="330" y="680" />
              <mxPoint x="330" y="680" />
              <mxPoint x="375" y="670" />
              <mxPoint x="455" y="670" />
            </Array>
            <mxPoint as="offset" />
          </mxGeometry>
        </mxCell>
        <mxCell id="cll1MJhss36fi2fnzOmH-140" value="Send" style="html=1;verticalAlign=bottom;endArrow=block;edgeStyle=elbowEdgeStyle;elbow=vertical;curved=0;rounded=0;" edge="1" parent="1">
          <mxGeometry x="0.3624" width="80" relative="1" as="geometry">
            <mxPoint x="495" y="664.5799999999999" as="sourcePoint" />
            <mxPoint x="590" y="665" as="targetPoint" />
            <Array as="points">
              <mxPoint x="555" y="664.5799999999999" />
              <mxPoint x="635" y="664.5799999999999" />
            </Array>
            <mxPoint as="offset" />
          </mxGeometry>
        </mxCell>
        <mxCell id="cll1MJhss36fi2fnzOmH-141" value="Send" style="html=1;verticalAlign=bottom;endArrow=block;edgeStyle=elbowEdgeStyle;elbow=vertical;curved=0;rounded=0;" edge="1" parent="1">
          <mxGeometry x="0.3624" y="-20" width="80" relative="1" as="geometry">
            <mxPoint x="495" y="679.9999999999999" as="sourcePoint" />
            <mxPoint x="590" y="680.42" as="targetPoint" />
            <Array as="points">
              <mxPoint x="555" y="679.9999999999999" />
              <mxPoint x="635" y="679.9999999999999" />
            </Array>
            <mxPoint as="offset" />
          </mxGeometry>
        </mxCell>
        <mxCell id="cll1MJhss36fi2fnzOmH-143" value="" style="html=1;points=[];perimeter=orthogonalPerimeter;outlineConnect=0;targetShapes=umlLifeline;portConstraint=eastwest;newEdgeStyle={&quot;edgeStyle&quot;:&quot;elbowEdgeStyle&quot;,&quot;elbow&quot;:&quot;vertical&quot;,&quot;curved&quot;:0,&quot;rounded&quot;:0};" vertex="1" parent="1">
          <mxGeometry x="300" y="290" width="10" height="40" as="geometry" />
        </mxCell>
        <mxCell id="cll1MJhss36fi2fnzOmH-144" value="" style="html=1;points=[];perimeter=orthogonalPerimeter;outlineConnect=0;targetShapes=umlLifeline;portConstraint=eastwest;newEdgeStyle={&quot;edgeStyle&quot;:&quot;elbowEdgeStyle&quot;,&quot;elbow&quot;:&quot;vertical&quot;,&quot;curved&quot;:0,&quot;rounded&quot;:0};" vertex="1" parent="1">
          <mxGeometry x="485" y="300" width="10" height="40" as="geometry" />
        </mxCell>
        <mxCell id="cll1MJhss36fi2fnzOmH-145" value="" style="html=1;points=[];perimeter=orthogonalPerimeter;outlineConnect=0;targetShapes=umlLifeline;portConstraint=eastwest;newEdgeStyle={&quot;edgeStyle&quot;:&quot;elbowEdgeStyle&quot;,&quot;elbow&quot;:&quot;vertical&quot;,&quot;curved&quot;:0,&quot;rounded&quot;:0};" vertex="1" parent="1">
          <mxGeometry x="715" y="320" width="10" height="10" as="geometry" />
        </mxCell>
        <mxCell id="cll1MJhss36fi2fnzOmH-146" value="" style="html=1;points=[];perimeter=orthogonalPerimeter;outlineConnect=0;targetShapes=umlLifeline;portConstraint=eastwest;newEdgeStyle={&quot;edgeStyle&quot;:&quot;elbowEdgeStyle&quot;,&quot;elbow&quot;:&quot;vertical&quot;,&quot;curved&quot;:0,&quot;rounded&quot;:0};" vertex="1" parent="1">
          <mxGeometry x="115" y="260" width="10" height="40" as="geometry" />
        </mxCell>
        <mxCell id="cll1MJhss36fi2fnzOmH-147" value="" style="html=1;points=[];perimeter=orthogonalPerimeter;outlineConnect=0;targetShapes=umlLifeline;portConstraint=eastwest;newEdgeStyle={&quot;edgeStyle&quot;:&quot;elbowEdgeStyle&quot;,&quot;elbow&quot;:&quot;vertical&quot;,&quot;curved&quot;:0,&quot;rounded&quot;:0};" vertex="1" parent="1">
          <mxGeometry x="300" y="270" width="10" height="10" as="geometry" />
        </mxCell>
        <mxCell id="cll1MJhss36fi2fnzOmH-148" value="" style="html=1;points=[];perimeter=orthogonalPerimeter;outlineConnect=0;targetShapes=umlLifeline;portConstraint=eastwest;newEdgeStyle={&quot;edgeStyle&quot;:&quot;elbowEdgeStyle&quot;,&quot;elbow&quot;:&quot;vertical&quot;,&quot;curved&quot;:0,&quot;rounded&quot;:0};" vertex="1" parent="1">
          <mxGeometry x="485" y="280" width="10" height="10" as="geometry" />
        </mxCell>
        <mxCell id="cll1MJhss36fi2fnzOmH-149" value="&lt;span style=&quot;font-size: 11px;&quot;&gt;Distribuce stÅedÅ¯ shlukÅ¯&lt;/span&gt;" style="text;html=1;strokeColor=none;fillColor=none;align=center;verticalAlign=middle;whiteSpace=wrap;rounded=0;" vertex="1" parent="1">
          <mxGeometry x="50" y="275" width="60" height="60" as="geometry" />
        </mxCell>
        <mxCell id="cll1MJhss36fi2fnzOmH-150" value="Send" style="html=1;verticalAlign=bottom;endArrow=block;edgeStyle=elbowEdgeStyle;elbow=vertical;curved=0;rounded=0;" edge="1" parent="1">
          <mxGeometry x="-0.0286" width="80" relative="1" as="geometry">
            <mxPoint x="125" y="270" as="sourcePoint" />
            <mxPoint x="300" y="270" as="targetPoint" />
            <Array as="points">
              <mxPoint x="180" y="270" />
              <mxPoint x="260" y="270" />
            </Array>
            <mxPoint as="offset" />
          </mxGeometry>
        </mxCell>
        <mxCell id="cll1MJhss36fi2fnzOmH-151" value="Send" style="html=1;verticalAlign=bottom;endArrow=block;edgeStyle=elbowEdgeStyle;elbow=vertical;curved=0;rounded=0;" edge="1" parent="1" target="cll1MJhss36fi2fnzOmH-148">
          <mxGeometry x="0.5521" width="80" relative="1" as="geometry">
            <mxPoint x="125" y="299.5799999999999" as="sourcePoint" />
            <mxPoint x="300" y="299.5799999999999" as="targetPoint" />
            <Array as="points">
              <mxPoint x="160" y="280" />
              <mxPoint x="160" y="290" />
              <mxPoint x="180" y="299.5799999999999" />
              <mxPoint x="260" y="299.5799999999999" />
            </Array>
            <mxPoint as="offset" />
          </mxGeometry>
        </mxCell>
        <mxCell id="cll1MJhss36fi2fnzOmH-152" value="Send" style="html=1;verticalAlign=bottom;endArrow=block;edgeStyle=elbowEdgeStyle;elbow=vertical;curved=0;rounded=0;" edge="1" parent="1">
          <mxGeometry x="-0.2174" y="-1" width="80" relative="1" as="geometry">
            <mxPoint x="310" y="299.16999999999996" as="sourcePoint" />
            <mxPoint x="540" y="299.16999999999996" as="targetPoint" />
            <Array as="points">
              <mxPoint x="330" y="299.16999999999996" />
              <mxPoint x="330" y="309.16999999999996" />
              <mxPoint x="330" y="309.16999999999996" />
              <mxPoint x="375" y="299.16999999999996" />
              <mxPoint x="455" y="299.16999999999996" />
            </Array>
            <mxPoint as="offset" />
          </mxGeometry>
        </mxCell>
        <mxCell id="cll1MJhss36fi2fnzOmH-153" value="" style="endArrow=none;dashed=1;html=1;dashPattern=1 3;strokeWidth=2;rounded=0;" edge="1" parent="1">
          <mxGeometry width="50" height="50" relative="1" as="geometry">
            <mxPoint x="600" y="305" as="sourcePoint" />
            <mxPoint x="620" y="305" as="targetPoint" />
          </mxGeometry>
        </mxCell>
        <mxCell id="cll1MJhss36fi2fnzOmH-154" value="Send" style="html=1;verticalAlign=bottom;endArrow=block;edgeStyle=elbowEdgeStyle;elbow=vertical;curved=0;rounded=0;" edge="1" parent="1" target="cll1MJhss36fi2fnzOmH-145">
          <mxGeometry x="-0.0286" width="80" relative="1" as="geometry">
            <mxPoint x="640" y="320" as="sourcePoint" />
            <mxPoint x="705" y="305" as="targetPoint" />
            <Array as="points">
              <mxPoint x="700" y="320" />
              <mxPoint x="690" y="300" />
              <mxPoint x="660" y="300" />
              <mxPoint x="650" y="290" />
            </Array>
            <mxPoint as="offset" />
          </mxGeometry>
        </mxCell>
        <mxCell id="cll1MJhss36fi2fnzOmH-155" value="Send" style="html=1;verticalAlign=bottom;endArrow=block;edgeStyle=elbowEdgeStyle;elbow=vertical;curved=0;rounded=0;" edge="1" parent="1">
          <mxGeometry x="-0.2174" y="-20" width="80" relative="1" as="geometry">
            <mxPoint x="310" y="310" as="sourcePoint" />
            <mxPoint x="540" y="310" as="targetPoint" />
            <Array as="points">
              <mxPoint x="330" y="310" />
              <mxPoint x="330" y="320" />
              <mxPoint x="330" y="320" />
              <mxPoint x="375" y="310" />
              <mxPoint x="455" y="310" />
            </Array>
            <mxPoint as="offset" />
          </mxGeometry>
        </mxCell>
        <mxCell id="cll1MJhss36fi2fnzOmH-156" value="Send" style="html=1;verticalAlign=bottom;endArrow=block;edgeStyle=elbowEdgeStyle;elbow=vertical;curved=0;rounded=0;" edge="1" parent="1">
          <mxGeometry x="0.3624" width="80" relative="1" as="geometry">
            <mxPoint x="495" y="304.5799999999999" as="sourcePoint" />
            <mxPoint x="590" y="305" as="targetPoint" />
            <Array as="points">
              <mxPoint x="555" y="304.5799999999999" />
              <mxPoint x="635" y="304.5799999999999" />
            </Array>
            <mxPoint as="offset" />
          </mxGeometry>
        </mxCell>
        <mxCell id="cll1MJhss36fi2fnzOmH-157" value="Send" style="html=1;verticalAlign=bottom;endArrow=block;edgeStyle=elbowEdgeStyle;elbow=vertical;curved=0;rounded=0;" edge="1" parent="1">
          <mxGeometry x="0.3624" y="-20" width="80" relative="1" as="geometry">
            <mxPoint x="495" y="319.9999999999999" as="sourcePoint" />
            <mxPoint x="590" y="320.41999999999996" as="targetPoint" />
            <Array as="points">
              <mxPoint x="555" y="319.9999999999999" />
              <mxPoint x="635" y="319.9999999999999" />
            </Array>
            <mxPoint as="offset" />
          </mxGeometry>
        </mxCell>
      </root>
    </mxGraphModel>
  </diagram>
</mxfile>
